<svg xmlns="http://www.w3.org/2000/svg" enable-background="new 0 0 600 500" viewBox="18.4 61.178 563.2 377.645"><path fill="#f5f5f5" d="M556 338.08H44c9.14-14.874 14.42-26.864 23.85-43.692 22.39-39.924 84.53 41.97 127.42-17.558 12.53-17.402 41.52-60.754 74.11-14.828 11.8 16.643 21.06-10.423 42.32-1.97 5.79 2.311 11.01 6.778 15.28 12.61 47.74 65.05 49.65-14.797 95.52 2 19.31 7.074 30.91 45.26 78.1 16.66 12.4-7.508 26.46.728 33.03 5.025 13.44 8.747 16.63 20.629 22.37 41.754zM413.788 377.869c-.115 5.049-58.267 9.114-129.896 9.114-71.618 0-129.583-4.065-129.468-9.114.115-5.027 58.267-9.114 129.885-9.114 71.629 0 129.594 4.087 129.48 9.114z"/><path fill="#26a851" d="M192.948 379.664h-9.004c-6.538 0-11.96-5.301-12.092-11.84l-5.558-259.135c-.132-6.538 5.05-11.84 11.588-11.84h9.003c-6.539 0-11.72 5.302-11.587 11.84l5.547 259.135c.142 6.539 5.564 11.84 12.103 11.84z"/><path fill="#67db8a" d="M192.948 379.664h-4.728c-6.539 0-11.96-5.301-12.093-11.84l-5.557-259.135c-.133-6.538 5.048-11.84 11.587-11.84h4.728c-6.539 0-11.72 5.302-11.587 11.84l5.547 259.135c.142 6.539 5.564 11.84 12.103 11.84z"/><path fill="#fff" d="m386.327 108.694 5.549 259.129a11.542 11.542 0 0 1-11.589 11.842H192.946c-6.54 0-11.956-5.302-12.096-11.842l-5.55-259.13a11.542 11.542 0 0 1 11.59-11.842h187.34c6.541 0 11.957 5.302 12.097 11.843z"/><path fill="#fff" d="M189.401 362.062 184.1 114.454a8.702 8.702 0 0 1 8.737-8.928h175.82c4.93 0 9.014 3.997 9.12 8.928l5.302 247.608a8.702 8.702 0 0 1-8.737 8.929H198.52c-4.931 0-9.014-3.998-9.12-8.929z"/><path fill="#e1e5e2" d="m382.62 336.542-19.173 4.14-2.13 15.154-13.09 6.152-7.027 9.003h33.14a8.702 8.702 0 0 0 8.738-8.929l-.458-25.52z"/><path fill="#67db8a" d="M310.84 100.485h-68.382l-.332-15.504a6.136 6.136 0 0 1 6.155-6.29h55.802c3.468 0 6.35 2.822 6.424 6.29l.332 15.504zm-64.754-3.707h60.967l-.253-11.797a2.653 2.653 0 0 0-2.637-2.582H248.36a2.52 2.52 0 0 0-2.527 2.582l.253 11.797z"/><path fill="#fff" d="M314.903 100.485h-68.38l-.332-15.504a6.136 6.136 0 0 1 6.154-6.29h55.802c3.468 0 6.35 2.822 6.424 6.29l.332 15.504zm-64.753-3.707h60.967l-.253-11.797a2.653 2.653 0 0 0-2.637-2.582h-55.803a2.52 2.52 0 0 0-2.527 2.582l.253 11.797z"/><path fill="#34b75c" d="M330.67 109.879a2.803 2.803 0 0 1-2.812 2.887h-93.755a2.946 2.946 0 0 1-2.91-2.495 2.595 2.595 0 0 1-.042-.392l-.345-16.136a2.818 2.818 0 0 1 2.822-2.887h93.755c1.59 0 2.908 1.298 2.942 2.887l.346 16.136z"/><path fill="#67db8a" d="M327.508 107.384a2.803 2.803 0 0 1-2.812 2.887h-93.503a2.595 2.595 0 0 1-.042-.392l-.345-16.136a2.818 2.818 0 0 1 2.822-2.887h93.494c.027.131.034.262.04.393l.346 16.135z"/><path fill="#f5f5f5" d="M361.959 164.635c.119 1.404-.346 2.68-1.185 3.608-.84.918-2.067 1.49-3.482 1.49H243.904c-2.819 0-5.291-2.279-5.53-5.098-.12-1.404.345-2.679 1.186-3.597.84-.919 2.066-1.491 3.482-1.491h113.387c2.82 0 5.292 2.28 5.53 5.088z"/><ellipse cx="211.587" cy="174.788" fill="#fff" rx="16.75" ry="18.23" transform="rotate(-46.213 211.587 174.788)"/><path fill="#67db8a" d="M207.8 181.301a2.225 2.225 0 0 1-1.486-.775l-3.317-3.86c-.758-.881-.704-2.15.12-2.834.824-.683 2.107-.523 2.865.36l1.982 2.305 10.147-7.912c.845-.659 2.126-.462 2.861.439.735.9.646 2.165-.199 2.824l-11.635 9.071a1.89 1.89 0 0 1-1.338.382z"/><path fill="#f5f5f5" d="M363.03 213.694c.12 1.404-.345 2.679-1.185 3.608-.84.918-2.067 1.49-3.482 1.49H244.976c-2.82 0-5.292-2.279-5.53-5.098-.12-1.404.345-2.68 1.185-3.597.84-.919 2.067-1.491 3.482-1.491H357.5c2.82 0 5.292 2.28 5.53 5.088z"/><ellipse cx="212.658" cy="223.846" fill="#fff" rx="16.75" ry="18.23" transform="rotate(-46.213 212.658 223.846)"/><path fill="#67db8a" d="M208.872 230.36a2.225 2.225 0 0 1-1.486-.776l-3.317-3.859c-.758-.882-.705-2.15.12-2.834.823-.684 2.106-.523 2.865.36l1.981 2.305 10.148-7.912c.844-.66 2.125-.462 2.86.439.736.9.647 2.164-.198 2.823l-11.636 9.072a1.89 1.89 0 0 1-1.337.382z"/><path fill="#f5f5f5" d="M364.102 262.753c.118 1.404-.346 2.679-1.186 3.608-.84.918-2.066 1.49-3.481 1.49H246.047c-2.82 0-5.292-2.279-5.53-5.098-.12-1.405.345-2.68 1.186-3.598.84-.918 2.066-1.49 3.481-1.49h113.388c2.82 0 5.292 2.279 5.53 5.088z"/><ellipse cx="213.729" cy="272.905" fill="#fff" rx="16.75" ry="18.23" transform="rotate(-46.213 213.73 272.905)"/><path fill="#67db8a" d="M209.943 279.419a2.225 2.225 0 0 1-1.486-.776l-3.317-3.859c-.758-.882-.704-2.151.12-2.834.824-.684 2.107-.523 2.865.36l1.981 2.305 10.148-7.912c.844-.66 2.125-.462 2.861.438.735.9.646 2.165-.2 2.824l-11.635 9.072a1.89 1.89 0 0 1-1.337.382z"/><path fill="#f5f5f5" d="M365.173 311.811c.119 1.405-.346 2.68-1.185 3.608-.84.919-2.067 1.491-3.482 1.491H247.119c-2.82 0-5.292-2.28-5.531-5.099-.12-1.404.345-2.679 1.186-3.597.84-.918 2.067-1.49 3.482-1.49h113.387c2.82 0 5.292 2.279 5.53 5.087z"/><ellipse cx="214.801" cy="321.964" fill="#fff" rx="16.75" ry="18.23" transform="rotate(-46.213 214.8 321.964)"/><path fill="#67db8a" d="M211.014 328.478a2.226 2.226 0 0 1-1.486-.776l-3.316-3.859c-.759-.882-.705-2.151.12-2.835.823-.683 2.106-.522 2.865.36l1.98 2.306 10.148-7.912c.845-.66 2.126-.462 2.861.438.736.9.646 2.165-.199 2.824l-11.635 9.072a1.89 1.89 0 0 1-1.338.382z"/><path fill="#f5f5f5" d="M382.62 336.542c-5.445 17.717-19.987 28.646-41.415 34.451H329.36s15.647-10.6 16.38-32.103c.532-15.591 22.064-5.446 36.636-9.702l.243 7.354z"/><path fill="#46c671" d="M242.131 142.91a.785.785 0 0 1-.25-.536l-.634-9.612h-3.373a.738.738 0 0 1-.741-.705c-.013-.201.042-.372.165-.512s.284-.21.482-.21h8.232c.198 0 .37.07.518.21s.227.311.24.512-.044.369-.173.504a.652.652 0 0 1-.49.2h-3.357l.635 9.613a.676.676 0 0 1-.188.537c-.138.145-.313.218-.523.218s-.39-.073-.543-.218zM247.71 142.91a.8.8 0 0 1-.242-.536.89.89 0 0 1 .06-.336l3.548-10.099c.075-.2.189-.366.34-.494a.855.855 0 0 1 .574-.194h.165c.231 0 .431.065.6.194.168.128.303.293.404.494l4.882 10.1c.064.134.1.245.105.335a.707.707 0 0 1-.171.537.661.661 0 0 1-.523.218c-.155 0-.298-.042-.43-.126s-.236-.198-.312-.344l-1.247-2.617h-5.62l-.902 2.617a.73.73 0 0 1-.267.344.706.706 0 0 1-.413.126.752.752 0 0 1-.551-.218zm2.62-4.26h4.462l-2.59-5.452-1.872 5.451zM260.28 142.408a.836.836 0 0 1-.349-.277.755.755 0 0 1-.16-.411.672.672 0 0 1 .159-.495.588.588 0 0 1 .473-.21c.11 0 .217.023.32.068a8.122 8.122 0 0 0 3.3.687c1.93 0 2.851-.643 2.766-1.93a1.165 1.165 0 0 0-.428-.838 2.93 2.93 0 0 0-.952-.528c-.372-.129-.9-.283-1.584-.462-.908-.235-1.645-.461-2.21-.68a4.129 4.129 0 0 1-1.487-.98c-.425-.436-.662-1.018-.71-1.746a3.03 3.03 0 0 1 .381-1.735c.297-.52.757-.934 1.381-1.242.625-.307 1.389-.461 2.292-.461 1.213 0 2.32.185 3.326.553.316.113.485.336.508.671a.698.698 0 0 1-.15.487.553.553 0 0 1-.465.218.782.782 0 0 1-.27-.067 8.237 8.237 0 0 0-2.69-.453c-.87 0-1.568.168-2.09.503-.524.336-.766.806-.726 1.41.026.402.177.73.453.98.276.252.613.448 1.014.588s.942.288 1.624.444c.885.213 1.601.426 2.15.638.548.213 1.028.543 1.437.99s.64 1.051.69 1.811a2.706 2.706 0 0 1-.418 1.686c-.32.498-.79.887-1.41 1.166-.621.28-1.35.42-2.187.42-1.4 0-2.73-.27-3.988-.805zM271.008 142.91a.785.785 0 0 1-.25-.536l-.683-10.35a.718.718 0 0 1 .178-.546c.134-.15.305-.227.514-.227s.394.076.552.227a.805.805 0 0 1 .26.545l.352 5.335 5.268-5.838a.665.665 0 0 1 .544-.269c.187 0 .354.065.5.194a.673.673 0 0 1 .238.477c.015.225-.034.398-.148.52l-3.563 3.86 4.75 5.602a.838.838 0 0 1 .214.487.623.623 0 0 1-.163.52.67.67 0 0 1-.515.218.74.74 0 0 1-.615-.302l-4.629-5.52-1.757 1.93.207 3.137a.676.676 0 0 1-.188.537c-.138.145-.313.218-.523.218s-.39-.073-.543-.218zM286.46 142.734a1.096 1.096 0 0 1-.356-.746l-.657-9.965a.718.718 0 0 1 .178-.545c.134-.15.305-.227.514-.227s.394.076.552.227a.805.805 0 0 1 .26.545l.627 9.496h5.405c.21 0 .393.075.552.226.159.15.245.333.259.545s-.048.391-.188.537-.313.218-.523.218h-5.868c-.286 0-.538-.104-.756-.31zM295.901 142.91a.785.785 0 0 1-.25-.536l-.683-10.35a.718.718 0 0 1 .178-.546c.134-.15.305-.227.514-.227s.394.076.552.227a.805.805 0 0 1 .26.545l.683 10.351a.676.676 0 0 1-.188.537c-.139.145-.313.218-.523.218s-.39-.073-.543-.218zM300.066 142.408a.836.836 0 0 1-.349-.277.755.755 0 0 1-.159-.411.672.672 0 0 1 .158-.495.588.588 0 0 1 .473-.21c.11 0 .217.023.32.068a8.122 8.122 0 0 0 3.301.687c1.928 0 2.85-.643 2.765-1.93a1.165 1.165 0 0 0-.428-.838 2.93 2.93 0 0 0-.952-.528c-.372-.129-.9-.283-1.584-.462-.908-.235-1.645-.461-2.21-.68a4.129 4.129 0 0 1-1.486-.98c-.426-.436-.663-1.018-.71-1.746a3.03 3.03 0 0 1 .38-1.735c.297-.52.757-.934 1.381-1.242.625-.307 1.389-.461 2.292-.461 1.213 0 2.321.185 3.326.553.316.113.485.336.508.671a.698.698 0 0 1-.15.487.553.553 0 0 1-.465.218.782.782 0 0 1-.269-.067 8.237 8.237 0 0 0-2.69-.453c-.872 0-1.569.168-2.092.503-.523.336-.765.806-.725 1.41.027.402.177.73.453.98.276.252.614.448 1.014.588s.942.288 1.624.444c.885.213 1.602.426 2.15.638.548.213 1.028.543 1.437.99s.64 1.051.69 1.811a2.706 2.706 0 0 1-.418 1.686c-.319.498-.79.887-1.41 1.166-.62.28-1.35.42-2.187.42-1.4 0-2.73-.27-3.988-.805zM312.86 142.91a.785.785 0 0 1-.25-.536l-.634-9.612h-3.372a.738.738 0 0 1-.741-.705c-.013-.201.041-.372.164-.512s.284-.21.483-.21h8.232c.198 0 .37.07.517.21s.227.311.24.512-.044.369-.173.504a.652.652 0 0 1-.49.2h-3.356l.634 9.613a.676.676 0 0 1-.187.537c-.139.145-.314.218-.523.218s-.39-.073-.543-.218z"/><ellipse cx="90.613" cy="413.76" fill="#f5f5f5" rx="46.613" ry="5.787"/><path fill="#fff" d="m97.795 392.64-.165 13.975 13.39-.749-.872-13.583z"/><path fill="#fff" d="M126.369 413.634c-6.682.348-28.727 1.305-31.387-1.282-1.553-1.513-1.69-3.862-1.13-5.965.563-2.155 1.856-4.057 3.11-4.564.6-.243 1.623-.173 2.734.044 2.416.457 5.265 1.572 5.265 1.572s3.156-4.526 4.822-4.634c2.327-.146 5.45 4.434 7.495 5.549 1.072.584 2.93.91 4.784 1.286 2.134.43 4.262.911 5.188 1.886.488.512.756 1.579.894 2.677.057.455.093.918.116 1.348a1.988 1.988 0 0 1-1.891 2.083zM113.132 399.779l-1.639 1.543"/><path fill="#fff" d="M111.711 402.275a.82.82 0 0 1-1.078.415.82.82 0 0 1-.415-1.078.82.82 0 0 1 1.078-.415.82.82 0 0 1 .415 1.078zM115.286 401.699l-1.638 1.543M113.866 404.195a.82.82 0 0 1-1.079.415.82.82 0 0 1-.415-1.078.82.82 0 0 1 1.079-.415.82.82 0 0 1 .415 1.078zM117.519 403.74l-1.639 1.543M116.098 406.236a.82.82 0 0 1-1.079.415.82.82 0 0 1-.415-1.078.82.82 0 0 1 1.079-.415.82.82 0 0 1 .415 1.078zM65.298 393.036l.824 12.83-13.39.75.16-13.58z"/><path fill="#fff" d="M81.47 413.634c-6.681.348-28.727 1.305-31.386-1.282-1.554-1.513-1.69-3.862-1.131-5.965.564-2.155 1.857-4.057 3.11-4.564.6-.243 1.623-.173 2.734.044 2.417.457 5.266 1.572 5.266 1.572s3.155-4.526 4.822-4.634c2.327-.146 5.45 4.434 7.494 5.549 1.073.584 2.931.91 4.785 1.286 2.133.43 4.262.911 5.188 1.886.488.512.756 1.579.893 2.677.058.455.093.918.117 1.348a1.988 1.988 0 0 1-1.892 2.083zM68.233 399.779l-1.638 1.543"/><path fill="#fff" d="M66.813 402.275a.82.82 0 0 1-1.079.415.82.82 0 0 1-.415-1.078.82.82 0 0 1 1.079-.415.82.82 0 0 1 .415 1.078zM70.388 401.699l-1.639 1.543M68.967 404.195a.82.82 0 0 1-1.078.415.82.82 0 0 1-.415-1.078.82.82 0 0 1 1.078-.415.82.82 0 0 1 .415 1.078zM72.62 403.74l-1.639 1.543M71.2 406.236a.82.82 0 0 1-1.08.415.82.82 0 0 1-.414-1.078.82.82 0 0 1 1.078-.415.82.82 0 0 1 .415 1.078z"/><path fill="#67db8a" d="M53.117 395.985H66.75c.582 0 1.084-.409 1.201-.979l.586-2.832L84.05 283.88l10.563 109.427a3.102 3.102 0 0 0 3.072 2.677h12.947a3.102 3.102 0 0 0 3.1-3.201l-3.551-143.987-.256-7.89-48.667.936-2.925.06-10.208 148.776a5.002 5.002 0 0 0 4.993 5.306z"/><path fill="#34b75c" d="M53.117 395.985H66.75c.582 0 1.084-.409 1.201-.979l.586-2.832c-.719-1.439-1.487-2.847-2.098-4.334-4.58-11.248 1.035-57.46-2.048-69.21-.65-2.463-1.675-4.826-2.295-7.299-1.232-4.855-.857-10.095 1.034-14.734 1.526-3.724 4.048-7.26 4.028-11.288-.02-2.778-1.26-5.368-2.127-8.008a31.423 31.423 0 0 1-1.035-15.749c.464-2.433 1.222-4.826 1.3-7.298.11-3.517-1.368-8.845-4.038-12.41l-2.925.058L48.124 390.68a5.002 5.002 0 0 0 4.993 5.306zM95.922 395.434c2.078 1.034 8.814.666 14.709.551a3.102 3.102 0 0 0 3.1-3.201l-3.551-143.987c-2.729.433-5.29 2.196-6.333 4.757-2.404 5.92 3.004 12.49 1.762 18.754-.699 3.506-3.378 6.294-4.52 9.672-2.433 7.24 2.54 14.764 3.142 22.368.433 5.476-1.438 10.884-1.498 16.37-.078 6.885 2.68 46.782 1.872 53.618-.916 7.781-6.063 13.721-8.683 21.098z"/><path fill="#67db8a" d="m84.045 283.883 3.588-13.624"/><path fill="#fff" d="m142.773 204.38-9.72 3.864-1.638.648s-1.171-1.56-3.037-4.012c-4.886-6.439-14.525-19.045-20.216-25.96a15.671 15.671 0 0 0-7.867-5.12l-20.842-2.606-20.818 3.261s-9.409 63.336-2.842 82.48c3.51 10.233 31.214-9.768 54.632 1.281 4.72 2.227-3.121-47.029-3.121-47.029 4.566 5.37 11.364 13.652 16.063 16.79 1 .678 1.936 1.147 2.771 1.334 5.378 1.203 16.704-4.131 25.89-9.525l-9.255-15.406z"/><path fill="#fff" d="M68.12 213.021h117.537v6.337H68.12z" transform="rotate(-32.919 126.889 216.19)"/><path fill="#fff" d="m77.03 259.585 5.6-3.633-10.149-15.65-5.602 3.633a4.275 4.275 0 0 0-1.26 5.913l5.497 8.476a4.275 4.275 0 0 0 5.913 1.26zM181.298 192.079l-10.151-15.652 19.376-2.149a.645.645 0 0 1 .639.986l-9.864 16.815z"/><path fill="#fff" d="M58.632 174.453a10.65 10.65 0 0 0-2.11.598 11.371 11.371 0 0 0-7.148 8.747c-2.1 12.444-5.515 35.854-2.85 42.816 2.905 7.57 24.868 19.504 29.959 22.191.674.36 1.055.555 1.055.555l4.95-17.133-17.558-11.705 4.384-21.974"/><path d="M77.464 249.395c.725.845 2.4-1.84 3.898-6.055 1.504-4.227 2.179-10.141 1.456-10.975-.714-.836-2.54 3.746-4.037 7.96-1.504 4.228-2.038 8.247-1.317 9.07z"/><path fill="#fff" d="M107.962 243.336c.168 1.218-2.575 3.172-10.626-.525 1.831.899 8.512 3.173 8.123 4.758-.433 1.768-1.528 1.589-9.656-2.133.282.188 6.85 2.555 6.07 3.852-.928 1.545-12.77 0-19.75-6.648-.051-.068-2.224-.967-3.473-1.369l-.172-.051c.094-.3.197-.599.3-.898 1.215-3.414 2.652-7.085 3.525-7.898l.137.077.565.291.932.496s11.251-7.486 13.45-4.184c2.105 3.175-5.193 5.109-5.193 5.109s14.709 2.177 14.821 3.84c.203 3.016-8.755 1.173-9.285 1.054.607.222 10.019 2.69 10.232 4.23z"/><path d="m64.93 220.523-2.567 1.729"/><path fill="#fff" d="M149.016 218.326c.91.979 9.349-2.152 14.422-5.99 4.113-3.116 1.889-7.288.558-9.15-1.004-1.426-3.94-5.564-5.374-4.414-.626.507.567 3.271.73 3.632-3.408-5.357-5.426-3.21-2.765 1.133-2.6-3.374-3.966-1.657-2.584.987-.79-1.116-2.189-1.262-2.034.266.163.893.747 2.035 1.27 2.91.541.91.395 2.095-.394 2.8-1.056.944-2.439 1.854-3.77 2.54-.231.112-2.248 1.32-2.471 1.423.6 1.435 1.386 2.735 2.412 3.863zM85.47 168.788a.82.82 0 0 1-.154.02v3.243l-4.888 22.053-9.45-21.59s.807-14.1-1.252-14.976c-1.53-.654-5.024-3.734-2.887-6.275 0 0 1.27-1.693 2.79-.615 1.521 1.077 1.974 2.868 1.974 2.868h.654s.298-9.086 4.937-8.816c4.63.27 9.97 2.473 14.965-.385 0 0 4.648 22.568-6.689 24.473z"/><path fill="#fff" d="M90.307 150.743c-.687-.295-2.644-.385-3.935.085M82.193 151.31c-.662-.145-2.421.113-3.49.754M84.847 153.608s.166 2.239.984 3.253c.58.718.626 1.77-.984 2.075M68.295 151.951s-1.223 2.088.472 3.142"/><path fill="#f5f5f5" d="M46.524 226.614c2.905 7.57 24.868 19.504 29.959 22.191 0-.413-.065-.826-.207-1.23-.62-1.729-2.524-2.697-3.318-4.35-.326-.686-.446-1.458-.761-2.154-.99-2.22-3.568-3.144-5.515-4.59-2.818-2.09-4.417-5.407-5.733-8.649-1.023-2.534-1.97-5.167-3.797-7.19-.816-.903-1.784-1.665-2.447-2.676-1.817-2.73-.958-6.386.13-9.475 1.077-3.1 2.34-6.494 1.142-9.551-.794-2.013-2.632-3.83-2.251-5.961.152-.892.685-1.665 1.262-2.372 2.066-2.513 4.927-4.667 5.667-7.843.566-2.448-.392-5.189-2.36-6.755a5.78 5.78 0 0 0-1.774-.958 11.371 11.371 0 0 0-7.147 8.747c-2.1 12.444-5.515 35.854-2.85 42.816z"/><path fill="#fff" d="m90.553 145.053-.09.07c0-.02.01-.03.01-.04.03 0 .05-.01.08-.03z"/><path fill="#f5f5f5" d="M392.677 416.235c0-3 17.124-5.428 47.068-5.428 29.94 0 56.31 2.424 56.31 5.425 0 2.993-22.634 5.425-52.575 5.425-29.944 0-50.803-2.428-50.803-5.422"/><path fill="#fff" d="m422.146 399.141-2.429 11.497 11.02-.908 3.034-10.065c-2.798-.704-8.974.913-11.625-.524z"/><path fill="#fff" d="M422.546 405.924a1.687 1.687 0 0 0-1.661-1.711h-.005a1.674 1.674 0 0 0-1.6 1.08 7.588 7.588 0 0 1-4.804 4.55l-7.724 2.447a3.675 3.675 0 0 0-2.564 3.45.456.456 0 0 0 .45.462l31.096.463a.456.456 0 0 0 .463-.45l.063-4.22s-.029-5.314-4.342-6.402c0 0-2.198 4.416-6.45 3.93-2.652-.304-2.922-3.599-2.922-3.599zM411.436 413.83l24.791.369M408.119 411.872l-1.072 4.363M480.294 399.663v10.068l-10.645.909v-11.496z"/><path fill="#fff" d="M470.693 405.924a1.687 1.687 0 0 0-1.662-1.711 1.68 1.68 0 0 0-1.605 1.085 7.58 7.58 0 0 1-4.8 4.544l-7.727 2.448a3.675 3.675 0 0 0-2.564 3.45.456.456 0 0 0 .449.462l31.097.463a.456.456 0 0 0 .463-.45l.062-4.22s-.028-5.314-4.341-6.402c0 0-2.198 4.416-6.45 3.93-2.653-.304-2.922-3.599-2.922-3.599z"/><path fill="#67db8a" d="M420.274 398.565a1.199 1.199 0 0 0 1.2 1.248h13.375c.586 0 1.094-.423 1.19-.998l.614-3.733 12.714-109.91 15.65 105.247 1.986 9.144c.115.537.585.93 1.132.94l13.49.413c.701.02 1.267-.566 1.229-1.257l-5.9-149.75-6.89.154h-.048l-2.908.067-36.193.806-6.198.135-4.443 147.494z"/><path fill="#34b75c" d="m465.017 390.419 1.986 9.144c.115.537.585.93 1.132.94l13.49.413c.701.02 1.267-.566 1.229-1.257l-5.9-149.75-6.89.154c-.067.134-.125.26-.183.394l.135-.394-2.908.067c-1.362 2.102-2.072 4.683-2.082 7.197-.01 4.433 1.804 8.664 4.001 12.512 1.574 2.763 3.368 5.45 4.26 8.501 3.301 11.361-6.889 23.7-2.85 34.821.98 2.687 2.726 5.047 3.666 7.743.921 2.649 1.017 5.518.854 8.329a49.669 49.669 0 0 1-5.853 20.726c-1.334 2.466-2.898 37.927-4.087 40.46zM420.274 398.565a1.199 1.199 0 0 0 1.2 1.248h13.375c.586 0 1.094-.423 1.19-.998l.614-3.733c-.259-2.638-1.17-5.22-2.399-7.58-1.151-2.226-2.59-37.39-3.368-39.77-3.118-9.499 4.923-20.168 1.344-29.504-.595-1.545-1.488-2.965-2.111-4.51-3.378-8.377 1.9-17.934.259-26.819-.691-3.713-2.59-7.283-2.197-11.044.326-3.1 2.178-5.805 3.32-8.713 2.024-5.162 1.583-11.101-.586-16.206l-6.198.135-4.443 147.494z"/><path fill="#fff" d="M424.055 249.47c14.916 2.372 30.903 2.088 41.55-.723"/><path fill="#fff" d="M373.497 201.618s27.059 18.182 36.894 16.743c4.222-.624 9.74-4.952 14.354-9.317l-.076 1.084c-.682 18.317-1.065 38.573-1.257 45.174-.029.94.777 1.68 1.717 1.583 11.793-1.266 54.626 9.384 53.983-1.554-1.286-21.705 1.286-50.337.259-66.955.24-4.366-.73-8.32-3.06-11.803-6.391-8.664-41.634-7.858-48.265-.911l-.01-.029-19.084 22.5a1.962 1.962 0 0 1-1.996.624l-28.354-7.752-5.105 10.613z"/><path fill="#fff" d="M442.835 166.417c.01 0 .029.01.038.01l-.067 4.097 6.064 11.514 9.106-11.946-.134-6.88c2.293-2.322 3.406-5.42 3.57-8.472.489-9.308 5.852-25.59-21.484-22.923l.096.441s-8.818 31.895 2.811 34.16z"/><path fill="#fff" d="M442.98 153.499a1.03 1.03 0 0 1-.664.261 1.023 1.023 0 0 1-.464-.089c-.389-.18-.587-.598-.46-.975.112-.339.43-.54.709-.717.077-.048.154-.097.226-.148.608-.436.847-1.198.567-1.813M442.988 157.291c-.976.666-2.007.53-3.097-.473M458.349 155.987a.187.187 0 0 0 .103-.037 2.66 2.66 0 0 0 1.044-1.703c.052-.319.06-.779-.198-1.158-.233-.342-.732-.575-1.16-.376"/><path fill="#f5f5f5" d="M432.827 257.044c16.638 1.41 46.825 7.475 46.287-1.718-.412-6.966-.431-14.651-.287-22.414a3.008 3.008 0 0 0-.778-.01c-1.535.183-2.974 1.037-3.982 2.198-1.506 1.736-2.235 3.991-3.128 6.112-.892 2.12-2.082 4.28-4.106 5.383-1.42.767-3.1.92-4.712.854-.623-.02-1.247-.077-1.851.057-.922.211-1.68.825-2.4 1.43-1.583 1.305-3.243 2.648-5.229 3.167-2.571.68-5.277-.096-7.868-.701-2.6-.604-5.498-.988-7.791.374-1.152.681-2.025 1.747-2.802 2.84-.537.758-1.046 1.555-1.353 2.428z"/><path fill="#fff" d="m462.725 210.803-42.93 13.377 3.676 9.792c8.036-.802 41.59-2.22 52.1-6.667 11.854-5.015 7.085-25.536 5.55-38.536-.902-7.648-4.002-11.698-6.402-13.736"/><path fill="#67db8a" d="m449.37 285.171-3.319-14.079"/><path fill="#fff" d="M424.745 209.044v-3.354M356.955 187.48l.102.047 5.081 1.538 1.157.471s-2.066.94-.763 2.456c0 0-1.456 1.304.172 2.266-1.603 2.963 5.504 4.44 10.576 2.841l.797.426 2.76 1.465c.181-.202.36-.427.531-.649.383-.481.727-1.003 1.023-1.532 1.238-2.276 1.073-4.117.742-5.139a22.126 22.126 0 0 0-.968-.6c-6.176-3.715-15.049-6.122-22.214-5.869-.898.307-.133 1.814 1.004 2.28z"/><path fill="#fff" d="M371.112 192.488c-3.637-1.142-2.72-3.854-2.72-3.854s-1.936-.814-2.537-1.168c-1.154-.68-1.68-2.195-1.414-2.645.956-1.62 11.938 5.229 11.938 5.229M363.294 189.539s1.739 1.174 2.68 1.537M365.475 195.082s1.797 1.587.68 2.29c-.206.13-.678.035-1.222-.155M407.416 229.753s-4.03 2.823.246 3.005c0 0-2.776 2.957 1.187 2.39-.408.522-.521.948-.418 1.277.62 1.938 9.063.548 13.168-2.843l1.372.198.704.1c.551-.465.87-2.86.523-5.083a10.268 10.268 0 0 0-.39-1.67c-.308-.892-.73-1.54-1.202-1.994-.107-.012-.206-.027-.314-.04-1.03-.11-1.926-.248-2.81-.372a18.147 18.147 0 0 0-2.372-.209c-2.033-1.654-4.611-2.643-6.775-3.114l1.59 3.663c-1.248.312-2.365.84-4.087 1.487-7.414 2.806-.422 3.205-.422 3.205z"/><path fill="#f5f5f5" d="M408.431 236.425c.62 1.938 9.063.548 13.168-2.843l1.372.198.704.1c.551-.465.87-2.86.523-5.083a10.268 10.268 0 0 0-.39-1.67c-.308-.892-.73-1.54-1.202-1.994-.107-.012-.206-.027-.314-.04a3.576 3.576 0 0 0-.72 2.067c-.01.712.188 1.45-.011 2.14-.227.765-.99 1.352-1.793 1.36-.569.005-1.137-.245-1.702-.18-.88.103-1.509.916-1.893 1.723-.387.798-.675 1.69-1.341 2.274-.629.56-1.51.742-2.346.81-.835.068-1.691.035-2.516.241-.582.147-1.15.449-1.539.897zM423.938 233.928a9.198 9.198 0 0 1 3.986-4.486c.141-.08.282-.158.422-.234 1.401-.758 2.812-1.535 4.347-1.938 1.88-.509 3.848-.46 5.786-.633a24.978 24.978 0 0 0 13.203-5.287c.671-.538 1.343-1.123 2.159-1.391.815-.27 1.688-.212 2.533-.173 4.298.192 9.298-.672 11.437-4.404 1.257-2.188 1.267-5 2.84-6.986.605-.748 1.401-1.343 1.93-2.14 1.007-1.506.901-3.473.661-5.267-.614-4.673-1.88-9.317-1.621-14.019.086-1.506.383-3.118 1.487-4.135.95-.883 2.312-1.142 3.608-1.286a86.857 86.857 0 0 1 2.485-.25c.863 1.996 1.564 4.453 1.919 7.475 1.535 12.992 6.304 33.516-5.546 38.534-9.958 4.207-41.596 5.788-51.636 6.62z"/><path fill="#fff" d="M408.204 198.8v5.72"/><path fill="#67db8a" d="M519.52 139.26c.227 7.773-5.94 14.076-13.773 14.076-7.839 0-14.372-6.303-14.598-14.076-.225-7.781 5.942-14.085 13.781-14.085 7.832 0 14.365 6.304 14.59 14.085z"/><path fill="#fff" d="M503.45 142.513a.498.498 0 0 1-.384-.178l-2.475-2.947a.5.5 0 1 1 .766-.644l2.157 2.569 6.339-5.201a.5.5 0 0 1 .634.773l-6.72 5.515a.5.5 0 0 1-.318.113z"/><path fill="#f5f5f5" d="M134.333 263.982c0 13.04 4.079 18.902 9.105 18.902 5.03 0 9.105-5.862 9.105-18.902 0-13.043-4.076-28.324-9.105-28.324-5.026 0-9.105 15.28-9.105 28.324z"/><path fill="#f5f5f5" d="M142.774 274.87h1.329v30.57h-1.329zM150.878 275.116c0 9.214 2.882 13.356 6.434 13.356 3.553 0 6.433-4.142 6.433-13.356 0-9.217-2.88-20.014-6.433-20.014-3.552 0-6.434 10.797-6.434 20.014z"/><path fill="#f5f5f5" d="M156.842 282.81h.939v21.601h-.939z"/><ellipse cx="522.839" cy="401.844" fill="#f5f5f5" rx="22.27" ry="2.369"/><path fill="#67db8a" d="M518.188 361.844 506.7 353.68s3.467-3.125 1.67-4.133-4.543 1.802-4.543 1.802-9.68-4.066-12.83-10.158c0 0 5.95-.226 5.662-1.916-.29-1.69-7.275-1.85-7.275-1.85l-2.035-5.328s7.374-3.02 15.023 1.789 8.145 6.524 8.145 6.524.37 5.648 2.01 6.42c1.639.77 1.016-3.759 2.12-3.15 1.105.61 6.306 10.41 3.54 18.165zM531.125 323.413c.524-4.11.058-13.194.058-13.194-.442 1.184-4.294 3.926-6 1.191-1.704-2.735 3.066-3.288 3.763-5.447.697-2.168-5.488-6.24-6.907-7.399-1.418-1.158-4.258 2.928-5.388 8.286s3.329 8.395 2.63 11.244c-.7 2.857-2.894.308-3.886-1.889s-3.39-4.309-2.732 5.873c.657 10.19 9.787 18.027 9.787 18.027 5.605-4.224 8.024-12.348 8.024-12.348s-3.103-.727-3.219-2.773c-.116-2.045 3.87-1.571 3.87-1.571zm-11.23 5.705c-.808.525-2.18-.165-3.055-1.53-.876-1.364-.93-2.892-.123-3.416.807-.514 2.17.175 3.045 1.539.886 1.365.94 2.893.133 3.407zm5.245-11.265c-.15-.816.847-1.691 2.237-1.953 1.39-.261 2.638.188 2.797 1.006.148.826-.849 1.7-2.239 1.962s-2.638-.188-2.795-1.015zM543.858 336.634c-.02-1.708 7.204-3.165 7.262-3.178l.622-5.675c-1.561-.206-8.778-.767-14.538 4.681-6.565 6.209-6.717 7.986-6.717 7.986s.738 5.613-.72 6.689c-1.456 1.075-1.729-3.488-2.694-2.675s-4.154 11.439.072 18.506l9.674-10.248s-4.01-2.39-2.445-3.727c1.565-1.339 4.808.88 4.808.88s9.617-5.996 11.518-12.585c0 0-6.807 2.388-6.842-.654z"/><path fill="#fff" d="m507.225 400.04-1.69-25.909h34.637l-1.689 25.91a2.257 2.257 0 0 1-2.252 2.11h-26.755a2.257 2.257 0 0 1-2.251-2.11zM502.713 368.504v4.192c0 .79.64 1.435 1.436 1.435h37.413c.79 0 1.435-.645 1.435-1.435v-4.192c0-.79-.645-1.436-1.435-1.436h-37.413c-.797 0-1.436.645-1.436 1.436zM150.61 113.464v30.839c0 1.037-.841 1.878-1.878 1.878h-18.053l-12.04 9.852c-.683.56-1.709.073-1.709-.81v-9.042h-6.542a1.877 1.877 0 0 1-1.878-1.878v-30.84c0-1.036.841-1.876 1.878-1.876h38.344c1.037 0 1.877.84 1.877 1.877z"/><path fill="#3c4150" d="M243.903 170.083h113.39c2.846 0 5.215-2.2 5.01-5.48-.25-2.98-2.89-5.41-5.87-5.41h-113.39c-2.998 0-5.27 2.422-5.02 5.47.26 2.99 2.89 5.42 5.88 5.42zm-.86-10.19h113.39c1.31 0 2.55.53 3.49 1.4.94.86 1.58 2.05 1.69 3.37.205 2.586-1.671 4.72-4.32 4.72h-113.39c-2.63 0-4.96-2.14-5.18-4.78-.225-2.575 1.683-4.71 4.32-4.71zM213.063 192.613h.17c9.876-.104 17.085-8.173 16.16-18.02-.91-9.75-9.55-17.63-19.28-17.63h-.17c-9.78.083-17.094 8.076-16.16 18.02.91 9.75 9.54 17.63 19.28 17.63zm-3.11-34.95h.16c9.38 0 17.7 7.59 18.59 17 .876 9.33-5.93 17.166-15.48 17.25-9.49.09-17.86-7.54-18.75-17-.876-9.328 5.929-17.166 15.48-17.25zM329.717 179.348a.35.35 0 1 0 0-.7H297.01a.35.35 0 1 0 0 .7h32.707zM291.897 178.647h-30.118a.35.35 0 1 0 0 .7h30.118a.35.35 0 1 0 0-.7zM256.507 178.647h-14.848a.35.35 0 1 0 0 .7h14.848a.35.35 0 1 0 0-.7zM278.153 188.549c0 .193.157.35.35.35h20.592a.35.35 0 1 0 0-.7h-20.592a.35.35 0 0 0-.35.35zM242.118 188.549c0 .193.157.35.35.35h31.327a.35.35 0 1 0 0-.7h-31.327a.35.35 0 0 0-.35.35z"/><path fill="#3c4150" d="M206.053 180.753c.827.959 2.254 1.245 3.3.44l11.64-9.07c1.03-.806 1.075-2.303.25-3.32-.85-1.05-2.36-1.27-3.35-.49l-9.88 7.7-1.76-2.05c-.89-1.02-2.39-1.2-3.36-.4-.988.813-1.028 2.325-.16 3.33l3.32 3.86zm-2.71-6.65c.68-.56 1.74-.42 2.37.32l1.99 2.3c.12.14.33.16.48.05l10.14-7.91c.7-.54 1.76-.37 2.38.38.627.769.526 1.823-.15 2.33l-11.63 9.07c-.667.511-1.706.404-2.34-.35l-3.32-3.85c-.595-.706-.62-1.776.08-2.34zM239.093 213.723c.26 2.99 2.89 5.42 5.88 5.42h113.39c2.887 0 5.04-2.231 5.04-5.02 0-.15-.01-.31-.02-.46-.26-2.98-2.89-5.41-5.88-5.41h-113.39c-2.96 0-5.273 2.388-5.02 5.47zm123.59 0c.207 2.606-1.687 4.72-4.32 4.72h-113.39c-2.63 0-4.96-2.14-5.18-4.78-.225-2.575 1.683-4.71 4.32-4.71h113.39c2.712 0 4.968 2.225 5.18 4.77zM211.183 206.023h-.17c-4.74.04-9.04 1.93-12.09 5.31-3.08 3.41-4.52 7.92-4.07 12.7.91 9.76 9.55 17.64 19.28 17.64h.17c9.474-.1 17.064-7.707 16.16-18.02-.91-9.75-9.54-17.63-19.28-17.63zm3.11 34.95c-9.41.06-17.86-7.54-18.75-17-.43-4.59.96-8.91 3.9-12.17 2.92-3.23 7.03-5.04 11.58-5.08h.16c4.69 0 9.12 1.9 12.48 4.97 3.36 3.07 5.66 7.33 6.11 12.03.87 9.276-5.873 17.145-15.48 17.25zM330.789 228.407a.35.35 0 1 0 0-.7H312.2a.35.35 0 1 0 0 .7h18.588zM305.517 228.057a.35.35 0 0 0-.35-.35h-32.243a.35.35 0 1 0 0 .7h32.243a.35.35 0 0 0 .35-.35zM264.415 227.706H242.73a.35.35 0 1 0 0 .7h21.685a.35.35 0 1 0 0-.7zM285.628 237.258a.35.35 0 1 0 0 .7h14.539a.35.35 0 1 0 0-.7h-14.539zM243.19 237.608c0 .193.156.35.35.35h36.17a.35.35 0 1 0 0-.7h-36.17a.35.35 0 0 0-.35.35z"/><path fill="#3c4150" d="m218.963 217.373-9.88 7.7-1.76-2.05c-.88-1.03-2.39-1.21-3.36-.4-.92.756-1.091 2.23-.16 3.33l3.32 3.86c.897 1.04 2.348 1.173 3.3.44l11.64-9.07c1.025-.802 1.084-2.31.25-3.32-.85-1.05-2.35-1.27-3.35-.49zm2.67 3.26-11.64 9.07c-.688.527-1.726.38-2.34-.35l-3.32-3.86c-.602-.696-.615-1.75.08-2.33.68-.56 1.74-.42 2.38.32l1.98 2.3c.12.14.33.16.48.05l10.15-7.91c.69-.55 1.75-.37 2.37.38.6.737.555 1.77-.14 2.33zM358.573 257.313h-113.39c-2.998 0-5.28 2.431-5.01 5.47.25 2.99 2.89 5.42 5.87 5.42h113.39c2.979 0 5.04-2.32 5.04-5.02 0-.15-.01-.31-.02-.46-.25-2.98-2.89-5.41-5.88-5.41zm.86 10.19h-113.39c-2.63 0-4.95-2.15-5.18-4.78-.214-2.694 1.786-4.71 4.32-4.71h113.39c2.637 0 4.962 2.153 5.18 4.77.225 2.585-1.671 4.72-4.32 4.72zM212.083 255.083c-4.74.04-9.04 1.93-12.09 5.31-3.07 3.41-4.52 7.92-4.07 12.7.91 9.76 9.55 17.64 19.28 17.64h.17c9.45-.1 17.066-7.691 16.16-18.02-.92-9.81-9.64-17.73-19.45-17.63zm3.28 34.94c-9.45.1-17.86-7.53-18.74-16.99-.43-4.59.95-8.91 3.89-12.17 2.92-3.23 7.03-5.04 11.58-5.08h.16c9.36 0 17.707 7.57 18.59 17 .878 9.35-5.948 17.156-15.48 17.24zM331.86 277.465a.35.35 0 1 0 0-.7h-16.31a.35.35 0 1 0 0 .7h16.31zM311.196 277.465a.35.35 0 1 0 0-.7h-29.47a.35.35 0 1 0 0 .7h29.47zM276.808 276.765h-33.006a.35.35 0 1 0 0 .7h33.006a.35.35 0 1 0 0-.7zM244.26 286.666c0 .194.157.35.35.35h56.628a.35.35 0 1 0 0-.7H244.61a.35.35 0 0 0-.35.35z"/><path fill="#3c4150" d="m220.043 266.423-9.89 7.71-1.76-2.05c-.88-1.03-2.39-1.21-3.36-.4-1 .842-1.012 2.324-.16 3.33l3.32 3.86c.9 1.044 2.382 1.165 3.3.44l11.64-9.07c1.007-.788 1.11-2.279.25-3.32-.85-1.05-2.35-1.27-3.34-.5zm2.66 3.27-11.64 9.07c-.688.527-1.726.38-2.34-.35l-3.32-3.86c-.594-.686-.624-1.744.08-2.33.68-.56 1.74-.42 2.38.31l1.98 2.31c.12.14.33.16.48.05l10.15-7.91c.69-.55 1.76-.37 2.37.38.6.737.555 1.77-.14 2.33zM359.643 306.373h-113.39c-3.064 0-5.276 2.491-5.01 5.47.25 2.99 2.89 5.42 5.88 5.42h113.38c2.98 0 5.04-2.32 5.04-5.02 0-.15-.01-.31-.02-.46-.25-2.98-2.89-5.41-5.88-5.41zm.86 10.19h-113.38c-2.64 0-4.96-2.15-5.19-4.78-.207-2.602 1.699-4.71 4.32-4.71h113.39c2.712 0 4.968 2.225 5.18 4.77.227 2.582-1.67 4.72-4.32 4.72zM213.163 304.143c-9.848.083-17.099 8.145-16.17 18.01.91 9.76 9.55 17.64 19.29 17.63h.16c9.696-.081 17.067-7.954 16.17-18.01-.92-9.81-9.67-17.74-19.45-17.63zm3.27 34.94c-9.47.07-17.86-7.54-18.74-16.99-.888-9.472 6.03-17.167 15.47-17.25h.16c4.7 0 9.12 1.9 12.49 4.97 3.36 3.07 5.66 7.32 6.1 12.02.885 9.446-6.022 17.167-15.48 17.25zM332.931 325.824h-36.47a.35.35 0 1 0 0 .7h36.47a.35.35 0 1 0 0-.7zM285.893 326.174a.35.35 0 0 0-.35-.35h-40.67a.35.35 0 1 0 0 .7h40.67a.35.35 0 0 0 .35-.35zM302.31 335.375h-32.495a.35.35 0 1 0 0 .7h32.494a.35.35 0 1 0 0-.7zM263.43 335.375h-17.748a.35.35 0 1 0 0 .7h17.748a.35.35 0 1 0 0-.7z"/><path fill="#3c4150" d="m221.113 315.483-9.89 7.71-1.76-2.05c-.88-1.03-2.39-1.21-3.35-.4-1.016.835-1.02 2.326-.17 3.33l3.32 3.86c.888 1.03 2.368 1.176 3.3.44l11.64-9.07c.46-.36.75-.89.82-1.48.07-.64-.14-1.32-.57-1.84-.85-1.05-2.35-1.27-3.34-.5zm3.21 2.26c-.04.41-.24.76-.55 1l-11.64 9.08c-.657.51-1.718.389-2.34-.35l-3.32-3.86c-.58-.67-.637-1.718.08-2.34.687-.564 1.757-.403 2.38.32l1.98 2.31c.12.14.33.16.48.05l10.15-7.92c.69-.54 1.76-.37 2.37.39.31.38.46.86.41 1.32zM81.423 153.786c-.514.038-.886.655-.826 1.37.055.716.518 1.26 1.032 1.221.51-.043.882-.655.826-1.37-.06-.716-.518-1.26-1.032-1.221zM88.245 153.369c-.478.036-.824.609-.768 1.273.051.665.481 1.17.959 1.134.473-.04.82-.609.768-1.273-.056-.665-.482-1.17-.96-1.134zM86.373 151.178c.04 0 .08-.007.12-.021 1.202-.438 3.058-.359 3.675-.093a.35.35 0 0 0 .276-.644c-.826-.354-2.881-.4-4.191.08a.35.35 0 0 0 .12.678zM78.704 152.414a.35.35 0 0 0 .18-.05c.989-.594 2.643-.842 3.235-.713a.35.35 0 1 0 .15-.684c-.804-.175-2.654.142-3.746.798a.35.35 0 0 0 .181.65zM85.814 157.985c-.106.29-.463.5-1.031.607a.35.35 0 1 0 .13.687c1.04-.196 1.421-.68 1.558-1.052.18-.486.042-1.08-.367-1.586-.74-.916-.906-3.038-.907-3.06a.35.35 0 0 0-.698.052c.007.096.183 2.361 1.06 3.447.253.314.349.652.255.905zM82.303 162.253c-.08.07-.12.19-.11.3.07.55.61 1.63 2.21 1.76.08.01.16.01.24.01 1.44 0 2.05-1.12 2.17-1.75a.358.358 0 0 0-.1-.31.315.315 0 0 0-.32-.09 8.92 8.92 0 0 1-3.78 0c-.11-.03-.22 0-.31.08zM68.952 154.796c-1.382-.86-.397-2.595-.355-2.668a.35.35 0 0 0-.604-.353c-.483.823-.98 2.638.59 3.615a.35.35 0 0 0 .37-.594z"/><path fill="#3c4150" d="M480.643 405.403v-4.17l.97.03h.05c.83 0 1.58-.69 1.54-1.62l-5.48-139.07.27-.23c1-.86 1.35-1.3 1.46-4.35-.94-21.45.2-27.52.4-31.36 6.73-7.75 2.94-24.7 1.62-35.9-1.67-14.04-9.27-17.52-23.16-18.59.01-.02.01-.04.01-.06l-.12-6.09c.32.09.69.15 1.09.15.55 0 1.17-.1 1.86-.36 2.61-.96 7.57-15.81 6.19-22.91-.65-3.37-2.51-4.2-4.07-4.25-.3-1.68-2.29-9.47-12.9-9.02-.62.03-1.27.15-1.99.38-2.05.64-8.89 2.55-10.96.12-.45-.53-1.2-.57-2.06-.09-2.23 1.25-5.48 6.16-4.09 10.43.63 1.92 2.25 3.92 6.03 5.08-1.07 7.08-1.56 15.68 1.25 20.21 1.05 1.7 2.41 2.58 3.97 2.97l-.07 3.81c-6.49.79-12.13 2.4-14.55 4.8-.05.02-.1.05-.13.09l-19.09 22.5c-.4.47-1.04.67-1.63.52 0 0-.02 0-.09-.02-.01-.01-.02-.01-.02-.01-.02-.01-.05-.01-.09-.02l-.06-.02c-.03-.01-.05-.02-.09-.03-.03 0-.05-.01-.07-.02l.01.01c-.01 0-.02-.01-.04-.01l-.03-.01h-.01l-.02-.01c-1.31-.36-5.61-1.53-18.05-4.93l-1.82-84.67c-.14-6.72-5.72-12.18-12.44-12.18h-43.5l-.06-2.77c-.04-1.78-1.51-3.23-3.29-3.23h-12.34l-.12-5.53c-.08-3.66-3.12-6.63-6.78-6.63h-59.86a6.49 6.49 0 0 0-6.51 6.64l.12 5.52h-8.26c-1.79 0-3.22 1.46-3.18 3.25l.06 2.75H177.883c-3.25 0-6.29 1.26-8.54 3.56-2.26 2.31-3.46 5.37-3.4 8.63l1.5 69.71v.01c-14.65 9.48-27.51 17.81-39.37 25.49-4.4-5.8-13.92-18.25-19.64-25.21-2.08-2.53-4.87-4.34-8.09-5.24l-14.68-1.83v-2.51c2.14-.4 3.87-1.54 5.14-3.4 2.61-3.8 2.86-9.9 2.56-14.63 1.07-.64 1.8-2.25 1.8-4.18 0-1.26-.31-2.38-.82-3.18 2.05-1.22 4.73-3.83 3.66-8.88-1.95-9.15-13.26-10.15-19.84-2.69-1.18-.62-6.04-2.9-9.66-.58-3.89 2.51-3.04 8.51-2.64 10.47-2.74-.73-5.23.6-5.6 5.42-.56 7.56 9.75 12.73 10.19 12.95.41 3.05.4 8.17.2 11.8-10.537 1.733-12.078 1.711-13.839 2.353-3.677 1.26-7.014 4.574-7.79 9.17-1.63 9.666-4.683 29.618-3.591 39.405l.01.1c.624 5.415 3.003 7.337 7.67 11.302l.04 3.73c0 .04.01.08.02.11.13 7.68.79 14.33 2.29 18.67.3.87.75 1.53 1.34 2.02l-9.03 131.58c-.178 2.95 2.013 5.339 4.73 5.64l-.06 5.07c-3.044.481-6.03 7.903-2.6 11.24 2.937 2.859 27.589 1.59 31.65 1.38 1.29-.07 2.29-1.17 2.22-2.45-.03-.43-.06-.88-.12-1.33v-.04c-.18-1.41-.51-2.38-.99-2.88-.98-1.03-3.1-1.53-5.37-1.99l-.62-.12c-1.53-.31-2.97-.59-3.89-1.04l.14-.14c.14-.13.14-.35.01-.49s-.35-.15-.49-.02l-.29.27c-.52-.38-1.11-.94-1.73-1.55l.26-.25c.15-.13.15-.35.02-.49a.347.347 0 0 0-.49-.02l-.29.27c-.52-.52-1.05-1.04-1.58-1.5l.19-.18c.14-.13.15-.35.02-.49a.36.36 0 0 0-.5-.02l-.24.23c-.59-.48-1.17-.86-1.74-1.09l-.16-2.33h.9c.74 0 1.39-.53 1.54-1.26l.59-2.85 15.1-105.4 10.28 106.53a3.475 3.475 0 0 0 3.14 2.97l-.06 5.04c-.19.03-.36.08-.51.14-1.36.54-2.72 2.52-3.32 4.79-.69 2.58-.24 4.88 1.23 6.31 2.915 2.856 27.554 1.593 31.64 1.38 1.3-.07 2.29-1.17 2.23-2.45-.31-4.454-.85-5.099-6.48-6.24l-.62-.12c-1.53-.31-2.97-.59-3.89-1.04l.14-.14c.14-.13.14-.35.01-.49s-.35-.15-.49-.02l-.29.27c-.52-.38-1.11-.94-1.73-1.55l.26-.25c.14-.13.15-.35.02-.49a.36.36 0 0 0-.5-.02l-.28.27c-.52-.52-1.05-1.04-1.58-1.5l.19-.18c.14-.13.15-.35.01-.49a.347.347 0 0 0-.49-.02l-.24.23c-.59-.48-1.17-.86-1.74-1.09l-.16-2.34c1.904-.042 3.39-1.665 3.33-3.55l-3.31-134.13c.17-.01.33-.07.48-.18 1.59-1.19 1.07-10.52 0-20.62 4.33-2.8 8.86-5.73 13.43-8.69.49.24.95.4 1.38.5 6.41 1.43 20.3-6.14 26.06-9.52.03-.01.05-.03.08-.04.51-.3.76-.93.76-1.78 0-.05 0-.11-.01-.17 3.27-1.07 7.7-3.26 10.7-5.53 4.13-3.12 2.18-7.29.88-9.27 1.18-.76 2.31-1.5 3.39-2.19l3.58 166.68c.13 6.72 5.72 12.18 12.44 12.18h196.34a11.88 11.88 0 0 0 11.94-12.2l-3.13-146.39 10.89 26.29c.35.84 1.15 1.34 2.01 1.34.26 0 .52-.04.78-.14l14.71-5.59c1.163-.465 1.709-1.748 1.24-2.89l-1.7-4.1c1.73-.63 3.39-1.47 4.65-2.49l1.19.17c.11.07.21.12.32.15 0 .01.01.02.01.02.01.02.03.04.05.05.05.05.15.09.23.09h.03c.03 0 .05-.01.08-.01-.12 4.75-.23 9.1-.32 12.75-.183 8.5-.562 11.328.84 12.71l-4.18 138.78c-.04.85.65 1.61 1.55 1.61h.1l-.78 3.7c-.81.03-1.55.54-1.84 1.31a7.234 7.234 0 0 1-4.58 4.34l-7.73 2.44a4.046 4.046 0 0 0-2.81 3.78c0 .45.36.81.8.82l31.1.46h.01c.21 0 .41-.08.56-.23.15-.15.24-.35.24-.56l.03-2v-.04l.04-2.19c0-2.31-1.34-5.68-4.2-6.62l1.57-5.21h.87c.76 0 1.41-.54 1.53-1.31l13.02-111.03 15.27 102.67 1.99 9.14c.15.7.76 1.21 1.46 1.22l1.18.04v3c-.76-.17-1.83.3-2.2 1.28a7.195 7.195 0 0 1-4.58 4.33l-7.73 2.45a4.046 4.046 0 0 0-2.81 3.78c-.01.45.35.81.8.82l31.09.46h.02c.21 0 .41-.08.56-.23.15-.15.24-.35.24-.56l.03-2.01v-.02l.03-2.2c0-2.35-1.34-5.63-4.11-6.59zm-41.5-242.04c-2.66-4.3-2.18-12.68-1.13-19.64 3.23.84 7.87 1.11 14.51.35.07 1.16.22 4.91-.58 8.46-.34 1.53.09 2.29.51 2.66.46.42 1.15.53 1.79.29.55-.2.93-.61 1-1.1.07-.31.83-2.59 2.12-3.29.46-.25.92-.27 1.42-.08 1 .38 1.59.98 1.81 1.85.86 3.38-4.3 9.37-4.35 9.43-.11.13-.12.3-.02.44.01.01.43.59 1.28 1l.12 6.24-.09.12-.51.67-8.1 10.63-5.44-10.32-.33-.63v-.02l.06-3.59c1.6.3 3.12.44 4.56.44 1.97 0 3.77-.27 5.4-.81.18-.06.28-.26.22-.44a.348.348 0 0 0-.44-.23c-4.72 1.57-9.81.28-10.05.28-1.57-.31-2.83-1.22-3.76-2.71zm-64.91-66.16c6.34 0 11.61 5.16 11.74 11.5l1.81 84.45c-2.37-.65-5.04-1.38-8.02-2.2l-1.64-76.51c-.11-5.11-4.36-9.27-9.47-9.27h-37.73l-.17-7.97h43.48zm-8.06 98.24c.78.16 1.8-.81.42-2.19.01 0 .02 0 .03-.01.4-.25.5-.56.51-.78.03-.68-.71-1.34-.95-1.53-.02-.02-.03-.04-.05-.05l-.01-.01c-.1-.07-.61-.17-2.69-1.54-.01-.02-.03-.02-.04-.03l-1.18-.48-5.05-1.52-.1-.05h-.01c-.72-.3-1.26-1.06-1.25-1.51.01-.15.07-.24.2-.29 2.62-.09 5.5.18 8.41.75.18.38.59 1.04 1.31 1.48.5.29 1.86.88 2.37 1.1-.07.37-.15 1.15.27 1.97.45.89 1.35 1.56 2.67 1.97.03.01.05.02.08.02.11 0 .2-.07.24-.18a.245.245 0 0 0-.17-.31c-1.18-.37-1.98-.95-2.37-1.72-.47-.92-.19-1.81-.18-1.82a.254.254 0 0 0-.14-.31c-.02-.01-1.93-.81-2.51-1.15-1.01-.59-1.5-1.94-1.33-2.31.82-.82 6.87 2.56 7.87 3.12 0 .01.01.01.02.01.55.31 5.94 3.49 6.36 3.75.03.09.06.19.09.3 0 0 .01.01 0 .02.56 2.26-.73 4.81-2.22 6.53-2.21-1.17-3.39-1.79-3.39-1.79-.05-.04-.13-.04-.18-.02-2.19.69-4.65.78-6.64.47.47-.55.05-1.32-.39-1.89zm-3.59-3.15c.77.34 2.37.97 3.36 1.05.01.02.02.03.04.04.21.16.82.74.8 1.17 0 .05-.01.21-.27.38-.42.28-3.3-.86-3.78-1.07-.06-.03-.12-.03-.17 0-.56-.46-.47-1.02.02-1.57zm-.21-1.47c.11-.5.66-.86.91-1 .42.29 1.76 1.16 2.58 1.48.01.01.01.01.02.01.25.22.77.74.75 1.13-.01.05-.01.22-.28.38-.3.19-2.11-.36-3.65-1.01l-.01-.01c-.27-.35-.39-.67-.32-.98zm.51 3.64c.61.25 1.61.64 2.46.84.28.25.97 1 .93 1.5-.01.09-.05.23-.25.36-.1 0-.18.1-1.01-.18a.292.292 0 0 0-.09-.02c-1.35-.44-2.65-1.22-2.04-2.5zm-54.74-115.42c3.28 0 6.01 2.67 6.08 5.94l.12 5.52h-3.01l-.12-5.53c-.03-1.61-1.37-2.92-2.99-2.92h-55.8c-1.62 0-2.91 1.31-2.88 2.93l.12 5.52h-3l-.12-5.53a5.783 5.783 0 0 1 5.8-5.93h55.8zm-2.09 3.71h2.17c.68 0 1.29.31 1.71.79.13.46.21.94.22 1.44l.12 5.52h-3l-.12-5.53a2.96 2.96 0 0 0-1.1-2.22zm.52 7.75h-56.21l-.12-5.53c-.02-1.23.95-2.22 2.18-2.22h51.74c1.24 0 2.26 1 2.29 2.23l.12 5.52zm-58.29-11.46h1.12c-1.72.87-2.91 2.4-3.36 4.19-.37.51-.57 1.11-.56 1.75l.12 5.52h-3.01l-.12-5.53a5.785 5.785 0 0 1 5.81-5.93zm-14.65 12.16h93.75c1.4 0 2.56 1.14 2.59 2.55l.35 16.13c.01.68-.24 1.32-.7 1.8-.47.47-1.09.73-1.76.73h-93.76c-1.4 0-2.57-1.14-2.6-2.54l-.35-16.14a2.472 2.472 0 0 1 2.48-2.53zm-2.83 18.68c.04 1.78 1.52 3.23 3.3 3.23h93.76c.86 0 1.66-.33 2.26-.94.6-.61.92-1.43.9-2.3l-.09-4h37.72c4.74 0 8.67 3.85 8.77 8.59l1.64 76.3c-.12-.03-.25-.07-.37-.1-.17 0-.3.01-.46.08-.02.01-.05.02-.07.04-1.94-1.18-11.34-6.94-13.46-6.42-.62.14-.66.7-.49 1.31-2.86-.55-5.69-.81-8.27-.72-.02 0-.05 0-.07.01-.35.12-.55.4-.57.76-.02.72.69 1.63 1.56 1.99l5.18 1.58.69.29c-.89.62-1.17 1.52-.53 2.39-.22.25-.57.75-.51 1.32.04.4.27.76.69 1.06-.71 1.66 1.03 2.73 2.78 3.2 1.79.57 5.3.67 8.09-.18l.52.27c-.48 1.2-1.08 3.85-.47 4.27.32.21 2.66 1.77 6.08 3.87l2.63 123.14c-5.18 1.45-11.14 1.1-16.92.78-6.97-.4-13.56-.78-17.06 2.42-1.67 1.53-2.54 3.74-2.64 6.76-.69 20.29-14.97 30.92-16.15 31.76h-130.72c-4.74 0-8.67-3.85-8.77-8.59l-3.79-177.23v-.01c6.05-10.3 5.56-9.47 5.6-9.6.01-.01.01-.02.01-.02.2-.67-.37-1.37-1.09-1.26-.42.04-2.31.25-4.75.52l-1.28-60.01c-.05-2.29.79-4.44 2.38-6.06 1.58-1.62 3.71-2.51 6-2.51h37.88l.09 4.01zm110.22 260.76h-10.62c3.29-2.61 15.06-13.22 15.69-31.74.09-2.82.89-4.87 2.42-6.27 3.28-2.99 9.72-2.62 16.54-2.23 5.78.32 11.73.66 16.98-.76l.15 7.13c-.02.08-.05.16-.08.24-5.25 16.36-18.34 27.28-39.98 33.36l-.96.27h-.14zm41.2-31.84.5 23.27a8.342 8.342 0 0 1-8.38 8.57h-30.61c20.36-6.03 32.98-16.47 38.49-31.84zm-205.83-162.61v.01l.7-.08c4.9-.55 6.59-.74 7.11-.8 0 .01 0 .01.01 0h.06c.03-.01.06-.01.09-.01.01 0 .02-.01.03-.01h.01c.29 2.24 1.4 3.96 3.32 5.13-.02.04-.91 1.55-2.02 3.45-.15.25-.3.51-.45.77-1.82 3.09-3.97 6.76-3.97 6.76-6.85-10.55 1.26 1.91-9.53-14.7 1.78-.2 3.32-.37 4.64-.52zm10.5-78.99h43.64l.17 7.97h-37.87c-2.48 0-4.79.97-6.5 2.72a9.01 9.01 0 0 0-2.58 6.57l1.29 60.07c-2.49.28-5.42.6-7.96.88l-1.43-66.73c-.14-6.34 4.88-11.48 11.24-11.48zm-20.25 11.48c-.06-3.07 1.08-5.96 3.2-8.13 2.12-2.16 4.98-3.35 8.04-3.35h4.93c-4.48 1.6-7.98 5.99-7.87 11.49l1.43 66.8c-2.83.32-5.02.56-5.26.59-.04 0-.14.03-.17.06-.94.61-1.88 1.22-2.81 1.82l-1.49-69.28zm-96.78 48.53c-.91-.39-2.87-1.89-3.28-3.61-.18-.77-.01-1.49.54-2.13.04-.06 1.08-1.4 2.3-.54 1.4.99 1.84 2.65 1.84 2.67.04.15.18.26.34.26h.65c.19 0 .35-.15.35-.34.02-.1.34-8.8 4.57-8.47 4.53.26 9.74 2.39 14.73-.2.45 2.52 2.35 14.59-1.68 20.47-2.05 2.98-4.85 3.08-4.96 3.15-.64.03-2.29.63-6.06-.51a.358.358 0 0 0-.44.24c-.05.18.05.38.24.43 1.96.6 3.94.93 5.96.59 0 .53.01 2.58.01 2.75l-1.53 6.89c-2.91 1.45-5.97 1.42-9.12-.08a.33.33 0 0 0-.22-.02l-2.77-6.31c.14-2.39.68-14.32-1.47-15.24zm.9 15.69 9.34 21.34c.06.13.18.21.32.21h.04a.35.35 0 0 0 .31-.27c0-.02.01-.03.01-.05.01-.04.02-.08.03-.11l-.01.01c.01-.01.01-.03.01-.04l.01-.04v-.01l.01-.03c0-.01.01-.02.01-.03v-.03l.01-.01c.25-1.14 1.26-5.75 4.75-21.53l14.6 1.82c3.04.86 5.7 2.59 7.69 5.01 5.71 6.92 15.17 19.32 19.59 25.13-5.71 3.7-11.18 7.25-16.51 10.7-.36-.42-3.275-3.86-3.36-3.96l-1.46-7.85a.341.341 0 0 0-.4-.28c-.19.03-.32.22-.28.41 1.287 7.27 1.263 6.127 2.37 13.7-8.28 5.37-16.25 10.53-24.26 15.71l-.28-.15c-.02-.04-.03-.08-.05-.11-.03-.12-.1-.21-.17-.31-.19-.19-.31-.19-.43-.22l-17.33-11.55 4.339-21.747a.344.344 0 0 0-.077-.287l-.002-.006c-.008-.007-.014-.01-.02-.017a.341.341 0 0 0-.176-.102h-.004a.32.32 0 0 0-.214.034.341.341 0 0 0-.172.188c-.007.02-.02.036-.024.057l-4.36 21.83-2.45 1.65c-.16.11-.2.32-.09.48.07.1.18.16.29.16.07 0 .14-.02.2-.06l2.368-1.599 17.014 11.347c-.002.001 0 .002-.002.002-3.568 5.306-4.672 12.002-4.7 12.11-.34 1.55-.56 3.11-.41 4.19-6.588-3.428-17.066-9.607-23-14.4h-.01c-4.913-3.884-7.168-6.33-7.708-11.155-1.09-9.706 2.006-29.573 3.608-39.185a11.107 11.107 0 0 1 8.973-9.053c.017-.003.031-.013.048-.019 1.632-.3 4.545-.64 12.019-1.878zm39.62 42.45c-.64.41-1.27.82-1.9 1.23-.26-1.76-.48-3.2-.64-4.22.086.101 2.144 2.527 2.54 2.99zm-18.24 19.21c6.76 1 14.24 2.63 14.52 3.51.14 2.18-6.74 1.18-8.86.69-.43-.1-.59.54-.19.67.15.06 4.07 1.16 6.14 1.94h.01c.6.22 3.77 1.37 3.85 2.01.03.22-.11.48-.39.68-1.17.87-4.34.91-9.74-1.57-.41-.19-.72.43-.3.63 1.15.59 8.23 3.16 7.94 4.36-.11.43-.23.65-.43.74-1.18.56-6.18-2.06-8.47-2.98-.09-.04-.18-.08-.27-.13-.42-.17-.69.39-.34.61.09.09 3.5 1.58 3.84 1.73 1.29.66 2 1.18 2.12 1.55.02.06.01.09 0 .1-.01.03-.15.22-.92.33-3.32.45-12.54-1.58-18.25-7-.03-.04-.14-.11-.31-.19h-.01c-.62-.35-3.05-1.21-3.16-1.25.054-.213 1.787-5.546 3.524-8.088 1.431.715 1.448.83 1.686.678 3.05-2.03 11.32-6.75 12.96-4.29.33.51.41.98.23 1.45-.6 1.59-3.97 2.8-5.22 3.13-.16.04-.27.19-.26.36.01.17.14.3.3.33zm-25.07 9.67.23-.14.005-.005c3.1 1.83 6.164 3.565 9.819 5.45.02.029.047.057.066.085h.01c.23.28.61.38 1 .16l3.94 6.07-5.3 3.44a3.93 3.93 0 0 1-5.13-.75c-.34-.44.46.76-5.8-8.89a3.914 3.914 0 0 1 1.16-5.42zm12.31 6.07-.63-.96v-.01c1.13-1.13 2.64-4.89 3.13-6.44 1.25 1.19 2.66 2.23 4.15 3.1l-6.65 4.31zm-23.26 6.52c-1.44-4.19-2.1-10.58-2.25-17.97 3.96 2.14 8.12 3.75 12.67 4.9a4.598 4.598 0 0 0-1.22 6.28l5.22 8.05c-6 1.4-10.64 2.27-13.01.64-.689-.44-1.143-1.127-1.41-1.9zm11.1 143.42-.67.63h-.01c-1.53-.588-2.29 1.55-.95 2.14 1.015.406 2.023-.573 1.48-1.66l.7-.66c.53.47 1.06.99 1.58 1.5l-.65.61c0-.01-.01-.01-.01-.01a1.17 1.17 0 0 0-1.54.6c-.4.891.44 1.935 1.49 1.56.666-.252.948-1.08.58-1.68l.63-.58c.6.59 1.18 1.14 1.72 1.55l-.64.6-.01-.01c-.954-.408-1.93.516-1.56 1.49.366.965 1.722 1.003 2.16.06.16-.36.12-.76-.07-1.07l.72-.67c.01.01.03.01.04.02 1 .54 2.58.86 4.26 1.19l.33.07c0 1.92 1.14 3.69 2.91 4.48a4.904 4.904 0 0 0 3.23.26c.03.31.06.61.07.91.05.89-.65 1.66-1.56 1.71-13.73.71-29.11.78-31.12-1.18-.4-.39-.69-.82-.89-1.28 4.693 2.177 22.877 1.297 28.01 1.02.2-.01.34-.17.33-.37a.353.353 0 0 0-.36-.33c-15.99.84-26.56.35-28.27-1.32-.01-.01-.02-.01-.03-.01v-.01c-.24-1.19-.06-2.37.11-3.1 2.935 1.13 6.235-1.107 6.19-4.35 2.18.5 4.48 1.4 4.51 1.41.15.06.32.01.42-.12 1.18-1.7 3.46-4.42 4.55-4.49.764-.054 1.73.606 2.32 1.09zm-.73 1.89c-.07.19-.344.347-.62.24-.583-.278-.132-1.116.38-.86a.474.474 0 0 1 .24.62zm1.89 2.17a.47.47 0 0 1-.35-.01.47.47 0 0 1 .38-.86c.321.107.402.69-.03.87zm1.88 2.03c-.524-.238-.261-1.073.38-.86.074.025.07.056.12.08.402.374-.032.993-.5.78zm-17.12-5.01.06-4.99h11.96l.14 2.14c-.14-.02-.29-.03-.44-.02-1.62.11-4.21 3.56-4.93 4.56-1.873-.69-4.797-1.648-6.79-1.69zm57.82-1.86c.37.19.76.46 1.16.78l-.67.63h-.01c-1.519-.584-2.303 1.544-.95 2.14a1.168 1.168 0 0 0 1.56-1.49c-.02-.06-.05-.11-.08-.17l.69-.65c.54.46 1.07.98 1.59 1.49l-.64.6h-.02a1.17 1.17 0 0 0-1.54.6c-.34.76.213 1.64 1.06 1.64a1.17 1.17 0 0 0 1.01-1.76l.62-.59c.61.6 1.19 1.15 1.73 1.56l-.64.6c0-.01-.01-.01-.01-.01-.942-.415-1.93.513-1.56 1.49.375.99 1.755.98 2.15.06.16-.36.13-.75-.06-1.07l.72-.67c.01.01.03.01.04.02 1 .54 2.58.86 4.26 1.19l.33.07c0 1.92 1.14 3.69 2.91 4.48a4.889 4.889 0 0 0 3.22.26c.04.31.06.61.08.91.04.89-.65 1.66-1.56 1.71-13.73.71-29.11.78-31.13-1.18-.4-.39-.68-.82-.88-1.28 4.706 2.174 22.816 1.3 28.01 1.02.443-.023.446-.7-.04-.7-15.98.84-26.55.35-28.26-1.32-.01-.01-.02-.01-.03-.01v-.01c-.24-1.19-.06-2.37.11-3.1 3.029 1.165 6.233-1.216 6.19-4.35 2.18.5 4.48 1.4 4.51 1.41.15.06.32.01.42-.12 1.18-1.7 3.46-4.42 4.55-4.49.14-.01.29.01.44.05.23.04.47.14.72.26zm.43 2.67c-.05.11-.14.19-.25.23-.352.192-.779-.205-.61-.61.326-.597 1.093-.134.86.38zm2.15 1.92c-.1.24-.38.34-.61.24-.486-.222-.293-.9.19-.9.326 0 .565.355.42.66zm1.62 2.28c-.518-.235-.266-1.074.38-.86.074.025.07.056.12.08.412.383-.046.986-.5.78zm-17.12-5.01.06-4.99h11.96l.14 2.14c-.14-.02-.29-.03-.44-.02-1.62.11-4.21 3.56-4.93 4.56-.76-.28-3.04-1.11-5.07-1.49-.66-.12-1.24-.19-1.72-.2zm15.34-8.53a2.752 2.752 0 0 1-2.67 2.84c-13.97 0-13.162.006-13.3-.01-1.25-.13-2.28-1.1-2.45-2.35l-9.25-95.63v-.06l1.23-23.33 1.03-3.9a.349.349 0 0 0-.25-.43.349.349 0 0 0-.43.25l-3.59 13.62v.04c-.01.02-.01.04-.01.06l-15.5 108.21-.58 2.83c-.09.41-.45.7-.86.7-14.36-.01-13.78.03-14.24-.04-2.356-.289-4.194-2.407-4.04-4.89l9-131.16c.97.54 2.21.77 3.69.77 2.61 0 5.95-.71 9.81-1.6 1.42 1.99 4.18 2.51 6.25 1.17.02-.02 2.14-1.39 5.76-3.73 8.56-1.45 18.19-1.84 27.09 2.29l3.31 134.35zm-2.55-134.89c-.02.01-.04.02-.07.02-.04.02-.1.02-.19-.02-.17-.08-.35-.16-.52-.24-8.43-3.81-17.44-3.69-25.59-2.47 2.54-1.65 5.66-3.67 9.21-5.96 1.98.55 5.06 1.15 7.08.89.75-.1 1.22-.31 1.42-.65.2-.36.12-.66-.07-.97 1.51.53 2.35.62 2.89.35.51-.24.7-.77.81-1.2.19-.81-.74-1.62-2.28-2.46 2.43.36 3.61-.19 4.11-.57.58-.41.75-.97.68-1.33-.08-.57-.87-1.17-2.55-1.9.11-.07 4.72-3.06 4.84-3.13 1.08 10.31 1.49 18.69.23 19.64zm15.38-28.93c-.26-.06-.54-.15-.83-.27 7.11-4.61 14.31-9.27 21.08-13.66.86 1.86 2.52 4.34 4.33 5.05-6.15 3.55-18.74 10.18-24.58 8.88zm37.01-16.92c-5.07 3.85-13.22 6.71-13.95 6.03-.16-.18-.32-.36-.48-.55 0-.1-.87-.94-1.72-2.88 2.35-1.57 3.72-1.89 5.97-3.86l.03-.03c.91-.81 1.1-2.17.47-3.24-.67-1.11-1.1-2.11-1.23-2.77-.01-.18-.03-.62.22-.72.26-.1.79.14 1.19.69 1.98 2.71 1.88 2.89 2.22 2.89.29 0 .45-.32.28-.55l-1.92-2.74c-.01-.01-.01-.02-.02-.01v-.01c0-.01 0-.01-.01-.01-.63-1.23-.54-2.06-.27-2.23s1.1.13 2.3 1.67c.24.36 1.43 2.04 1.51 2.15.12.18.34.19.48.09.16-.11.2-.33.09-.49-.52-.85-2.16-2.59-2.59-4.65-.15-.69-.06-1.11.11-1.22.15-.09.52-.01 1.08.45.54.43 1.24 1.22 2.07 2.53.01 0 .01.01.01.01.09.13 1.24 1.83 1.32 1.93.28.4.83-.02.58-.39-.07-.1-1.32-1.94-1.32-1.95-.69-1.55-1-2.95-.8-3.15.13-.1.28-.14.46-.11 1.4.2 3.86 3.62 4.64 4.79 1.39 2.07 2.85 5.63-.72 8.33zm-3.53-13.75c-.1-.03-.19-.06-.29-.07-.38-.05-.72.04-1 .27-.21.18-.3.47-.3.83l-.5.33c-1.84-1.62-3.01-.55-2.43 1.57l-.36.23c-.98-.42-1.68.12-1.7 1.11-52.5 33.97-44.3 28.68-51.13 33.1-2.6-.63-5.66-1.16-8-1.53l.68-.44c.96-.43 2-1.01 2.68-1.74 1.63-1.05 67.56-43.74 77.05-49.89.99 1.54 2.08 3.21 3.07 4.73l-17.77 11.5zm24.25 181.01c-6.35 0-11.61-5.16-11.74-11.5l-3.59-167.11c3.26-2.12 6.04-3.92 8.18-5.3l3.7 172.43c.122 5.013 3.306 9.672 8.37 11.48h-4.92zm207.58-11.48c.144 6.333-4.873 11.48-11.24 11.48h-187.33c-6.319 0-11.612-5.145-11.75-11.5l-3.7-172.86v-.02c2.61-1.69 4.09-2.66 4.1-2.68 1.42-2.42 2.64-4.49 3.68-6.27l3.77 176.09c.11 5.11 4.36 9.27 9.47 9.27h175.82a9.047 9.047 0 0 0 9.08-9.29c-1.016-48.903-3.225-150.633-3.34-155.84 2.34 1.43 5.13 3.07 8.08 4.68l3.36 156.94zm-1.32-149.62c-.51.19-.93.56-1.16 1.05l-.17-7.99c2.79 1.5 5.7 2.97 8.52 4.2l-7.19 2.74zm8.16-3.11c-10.16-4.34-22.03-12.03-24.29-13.53 2.92-1.18 6.51-6.22 5.3-9.98l-.01-.01 27.5 7.51c.33.09.67.1.99.05v5.38c0 .19.16.35.35.35s.35-.16.35-.35v-5.63c.25-.13.48-.31.67-.53l18.98-22.39c.04-.02.07-.04.1-.07 2.12-2.23 7.62-3.93 14.44-4.75l5.82 11.05c.05.1.16.17.28.18.01 0 .02.01.03.01.11 0 .21-.06.28-.14l8.71-11.44c14 1.01 21.29 4.08 22.91 18 1.45 12.38 6.36 33.25-5.34 38.17-9.42 3.98-39.07 5.7-51.13 6.56 0-.13.01-.26.01-.43.59-1.97.59-7.72-2.91-9.07 30.35-9.46 38.85-12.11 40.88-12.74.01-.01.02-.01.03-.01.02-.01.03-.01.04-.01.01 0 .02-.01.03-.01-.04.01-.02.01.05-.02.01 0 .03 0 .05-.01.02-.01.04-.01.07-.02.01 0 .01-.01.02-.01.05-.01.1-.03.09-.03l.02-.01c.02 0 .04-.01.05-.01 0 0 .01 0 .02-.01.01 0 .02 0 .04-.01.01 0 .03-.01.04-.01.18-.05.28-.25.23-.43a.348.348 0 0 0-.44-.23l-5.4 1.68v-6.46c0-.2-.16-.35-.35-.35s-.35.15-.35.35v6.64c0 .01 0 .03.01.04l-31.92 9.94c.05-1.6.18-6.38.48-13.27v-3.35c0-.2-.15-.35-.35-.35-.19 0-.35.15-.35.35v3.2c-5.79 5.47-10.65 8.62-14.05 9.12-.28.04-.57.07-.88.07l-1.76-4.26a2.205 2.205 0 0 0-2.79-1.21l-6.55 2.49zm21.36 8.73c-.01 0-.02.01-.03.01-.07.02-.14.08-.17.14-.02.01-.03.03-.04.04 0 .01-.01.02-.01.03-.07.09-.13.2-.18.35 0 .01-.01.02-.01.04-.73-.09-1.38-.16-2.08-.18-2.24-1.8-4.86-2.64-6.43-3.02l-1.02-2.47c.24-.01.47-.04.69-.07 3.48-.51 8.15-3.47 13.89-8.79 0 .11-.17 4.54-.43 12.62-.1.03-3.95 1.22-4.18 1.3zm-14.97-6.97c.55-.21 1.18.07 1.39.62.12.36.07.68-.09.95-.27.46-.87.65-1.36.43-.85-.38-.87-1.65.06-2zm18.82 16.75c-.1 0-1.94-.28-1.94-.28-.423-.06-.58 1.031-5.45 2.79-3.27 1.05-6.53 1.26-7.37.45-.27-.27-.21-.66.19-1.21l3.2-1.06c.13-.04.2-.19.16-.32-.04-.13-.19-.2-.32-.16l-3.23 1.07-.04.01c-1.38.19-1.69-.1-1.76-.23-.21-.4.43-1.31.8-1.71h.02c.03 0 .05-.01.08-.01l3.68-1.1c.13-.04.21-.18.17-.32a.247.247 0 0 0-.31-.16l-3.69 1.1c-.03.01-.05.02-.07.03h-.02c-.99-.04-1.62-.25-1.71-.56-.15-.49.81-1.43 1.56-1.96l3.65-1.09c.13-.04.21-.18.17-.31a.245.245 0 0 0-.31-.17l-3.66 1.09c-1.27-.08-2.63-.41-2.69-.8-.14-.75 3.81-2.14 4.65-2.47.9-.36 1.63-.65 2.4-.86.08-.02.17-.05.26-.07.02-.01.05-.02.07-.04.04-.02.07-.05.09-.09.03-.07.03-.15 0-.21l-1.39-3.21c.08.02.17.04.25.07 2.25.59 4.38 1.62 5.94 2.88.04.04.1.06.15.06 1.46.02 2.27.22 5.39.61 1.17 1.17 2.22 4.3 1.08 8.24zm.2 21.51c.147-6.472.348-14.427.51-20.87 2.67-.23 6.3-.47 6.73-.5 9.709.344 17.85 1.31 27.79 1.31 5.64 0 11.94-.31 19.65-1.18-.25 14.19.38 21.2.3 22.11h-.01c-.48 4.16-9.67 4.09-13.86 3.94-9.018-.202-24.26-2.633-32.75-3.29-5.26-.42-6.45-.11-6.56-.16v.01c-.75.06-.49.05-.68.04-.01.01-.01.01-.02 0-.68-.03-1.21-.67-1.1-1.41zm-19.13 160.73c-.06 0-.11-.05-.11-.11.03-1.43.96-2.69 2.33-3.12l.77-.25-.86 3.51-2.13-.03zm30.68-6.7c-2.32.29-3.67 2.59-2.95 4.64l-20.93-.31h-.01c-.19 0-.34.15-.35.34 0 .2.16.35.35.36l21.45.32h.01l2.47.03.51.01-.03 1.67-.1.1-28.25-.42.92-3.76h.01l6.16-1.96a7.883 7.883 0 0 0 5.03-4.76c.2-.51.62-.81 1.27-.85.72 0 1.33.61 1.31 1.36 0 .01 0 .02.01.03.1 1.2.85 3.49 3 3.88.07.02.14.03.22.04 2.85.34 5.24-1.49 6.67-3.87 1.2.3 2.5 1.35 3.23 3.15zm-3.62-3.83c-.04.03-.07.06-.1.11-.02.05-2.14 4.2-6.1 3.74-2.27-.26-2.58-3.01-2.61-3.26.01-.54-.2-1.05-.57-1.43-.24-.24-.52-.42-.84-.51l.81-3.81h10.96l-1.55 5.16zm36.44-5.17a.853.853 0 0 1-.8-.66l-1.98-9.13c-.02-.15-15.59-105.12-15.65-105.24.01-.01 0-.02 0-.03l-3.32-14.08a.358.358 0 0 0-.42-.26.34.34 0 0 0-.26.42l.69 2.92.77 26.85v.15l-11.48 97.66c-.07.41-.43.71-.84.71h-13.38a.85.85 0 0 1-.85-.88v-.01l4.25-141.34c1.074.115 2.312-.785 17.73 1.24 6.85.79 16.77 2.19 24.57 2.19 3.04 0 7.05-.19 9.79-1.49l5.54 140.51c.02.46-.32.88-.87.88-4.98-.15-8.51-.26-13.49-.41zm11.8 1.06v4.05a.35.35 0 0 0-.19.17c-.02.04-2.15 4.19-6.1 3.74-2.27-.26-2.58-3.01-2.61-3.26 0-.77-.41-1.44-1.04-1.78v-3.22l9.94.3zm-27.15 14.64c-.06 0-.11-.05-.11-.11.02-1.43.96-2.69 2.32-3.12l.77-.25h.01l-.86 3.51-2.13-.03zm27.73-2.06-20.93-.31h-.01c-.19 0-.35.15-.35.34 0 .2.15.35.34.36l21.45.32h.01l2.54.03.44.01-.02 1.67c0 .06-.05.09-.11.1l-28.24-.42.92-3.76c.14-.04 6.17-1.96 6.17-1.96a7.877 7.877 0 0 0 5.02-4.75c.19-.5.66-.86 1.27-.86.42 0 .9.29.98.45.23.25.35.57.34.91v.03c.1 1.24.91 3.65 3.23 3.92 2.78.33 5.26-1.46 6.66-3.87 1.34.38 2.55 1.42 3.23 3.15a3.574 3.574 0 0 0-2.94 2.37 3.4 3.4 0 0 0 0 2.27z"/><path fill="#3c4150" d="M441.063 152.583c-.19.55.09 1.15.64 1.41.18.08.37.12.57.12h.06c.33-.02.66-.15.89-.36.14-.13.14-.35.01-.49a.339.339 0 0 0-.49-.02.698.698 0 0 1-.74.11c-.23-.1-.35-.34-.28-.55.07-.22.32-.37.56-.53.09-.05.17-.1.25-.16.74-.53 1.03-1.47.68-2.24a.343.343 0 0 0-.46-.17c-.18.08-.26.28-.18.46.21.46.02 1.04-.45 1.38-.07.05-.14.09-.21.14-.31.2-.7.45-.85.9zM443.273 157.093a.34.34 0 0 0-.48-.09c-.86.58-1.7.44-2.67-.44a.347.347 0 0 0-.47.51c.78.72 1.5.97 2.11.97.57 0 1.05-.21 1.42-.46.16-.11.2-.33.09-.49zM441.483 148.513a.36.36 0 0 0 .47-.18c.07-.18 0-.38-.18-.46-.95-.43-1.99-.68-3.02-.7a.348.348 0 0 0-.36.34c0 .19.15.35.34.36.94.02 1.89.24 2.75.64zM445.463 149.423c1.17.09 2.35.42 3.41.97.05.02.1.03.16.03.13 0 .25-.06.31-.19a.35.35 0 0 0-.15-.47 9.95 9.95 0 0 0-3.68-1.04.363.363 0 0 0-.38.32c-.01.19.13.36.33.38zM445.823 151.053c-.45.06-.74.47-.66.9.07.42.48.71.92.63.44-.07.74-.47.66-.9a.788.788 0 0 0-.92-.63zM458.283 153.033c.26-.12.58.04.73.25.19.29.18.65.14.91-.1.57-.41 1.1-.88 1.45-.01 0-.02.01-.03.02-.15.04-.25.18-.24.34.01.19.16.33.35.33h.01c.11 0 .21-.04.3-.1a3.05 3.05 0 0 0 1.18-1.93c.06-.38.07-.94-.26-1.41-.31-.46-.99-.78-1.59-.5a.351.351 0 0 0 .29.64zM440.223 149.853a.795.795 0 0 0-.92-.64c-.45.07-.74.48-.66.9.07.43.48.72.92.64s.74-.48.66-.9zM505.923 159.623c11.22 0 19.95-8.857 19.95-19.77 0-.2 0-.41-.01-.61-.33-11.22-9.8-20.36-21.1-20.36-11.427 0-20.281 9.195-19.95 20.38.1 3.36 1.03 6.68 2.7 9.63l-2.55 6.96c-.14.36-.05.75.22 1.02s.66.36 1.02.22l6.3-2.3c3.78 3.12 8.54 4.83 13.42 4.83zm-19.96-3.18a.255.255 0 0 1-.28-.07.255.255 0 0 1-.07-.28l2.61-7.11a.35.35 0 0 0-.02-.3 20.069 20.069 0 0 1-2.69-9.44c-.315-10.96 8.38-19.66 19.25-19.66 5.46 0 10.48 2.21 14.18 5.77 3.69 3.57 6.06 8.49 6.22 13.91.311 10.855-8.26 19.66-19.24 19.66-4.78 0-9.44-1.7-13.12-4.8a.4.4 0 0 0-.23-.08c-.04 0-.08.01-.12.02l-6.49 2.38zM524.793 317.923c.23 1.21 1.91 1.53 3.21 1.29 1.59-.3 2.7-1.34 2.51-2.37-.19-1.02-1.6-1.59-3.2-1.29s-2.7 1.34-2.52 2.36v.01zm2.65-1.68c1.28-.24 2.28.19 2.39.72.1.56-.67 1.32-1.96 1.56-1.3.25-2.28-.18-2.39-.73-.1-.54.68-1.31 1.96-1.55zM516.523 323.883c-.98.63-.97 2.35.02 3.89.78 1.22 2.39 2.39 3.54 1.64 1.15-.74.79-2.63-.03-3.89-.99-1.55-2.54-2.27-3.53-1.64zm3.18 4.94c-.76.5-2-.53-2.57-1.42-.76-1.18-.86-2.53-.23-2.94.78-.49 2.01.57 2.57 1.44.57.89.99 2.44.23 2.92z"/><path fill="#3c4150" d="M551.793 327.433c-1.44-.19-8.89-.85-14.83 4.77-6.47 6.13-6.81 8.02-6.82 8.29.27 2.09.36 5.67-.58 6.36-.17.12-.24.1-.26.09-.3-.08-.63-.9-.85-1.43-.3-.76-.54-1.37-1.01-1.48-.14-.04-.36-.04-.59.16-1.18.99-4.23 11.89-.01 18.95-.12 1.21-.2 2.41-.26 3.57h-3.52l-.26-26.45c5.53-4.27 7.91-12.07 8.01-12.41.02-.09.01-.19-.04-.27-.04-.09-.12-.14-.22-.17-.03 0-2.85-.69-2.95-2.45-.01-.28.07-.5.26-.68.7-.66 2.56-.6 3.22-.52.19.02.37-.12.39-.31.52-4.09.08-12.88.06-13.25a.352.352 0 0 0-.3-.33.363.363 0 0 0-.38.22c-.24.64-1.81 1.97-3.34 2.13-.88.09-1.56-.25-2.03-1-.8-1.29.02-1.91 1.54-2.91.95-.62 1.94-1.26 2.26-2.24.61-1.9-2.78-4.61-6-7.01-.44-.32-.79-.58-1.02-.77-.35-.29-.79-.35-1.25-.19-1.74.62-3.81 4.42-4.7 8.67-.68 3.19.57 5.61 1.57 7.56.71 1.39 1.33 2.59 1.06 3.68-.09.36-.29.97-.66 1-.65.04-1.82-1.29-2.57-2.95-.5-1.11-1.34-2.21-2.18-2-.74.18-1.66 1.21-1.22 8.04.62 9.58 8.7 17.18 9.79 18.16l.26 26.45h-2.71c-.31-1.57-.69-3.2-1.12-4.82 2.72-7.74-2.38-17.78-3.72-18.52-.26-.15-.48-.11-.61-.04-.43.2-.55.84-.71 1.64-.1.57-.27 1.44-.54 1.58-.03.01-.09.04-.28-.04-1.05-.5-1.67-4.02-1.82-6.2-.05-.19-.75-1.98-8.29-6.72-7.72-4.85-15.27-1.85-15.35-1.82a.35.35 0 0 0-.19.45l2.04 5.33c.05.13.17.22.31.22 3.23.07 6.79.69 6.94 1.56.01.07.01.16-.09.29-.62.76-3.54 1.15-5.24 1.22-.12 0-.23.07-.29.17a.37.37 0 0 0-.01.34c3.18 6.13 12.61 10.15 13.01 10.32.13.05.28.02.39-.08.71-.73 2.84-2.46 4.12-1.74 1.08.61-.82 2.74-1.74 3.57-.07.07-.12.17-.11.28 0 .1.06.2.15.26l11.32 8.05c.42 1.58.79 3.17 1.1 4.7h-14.77c-.99 0-1.79.81-1.79 1.79v4.19c0 .99.8 1.79 1.79 1.79h1.06l1.66 25.58a2.612 2.612 0 0 0 2.6 2.44h26.76c1.37 0 2.51-1.07 2.6-2.44l1.67-25.58h1.06c.98 0 1.78-.8 1.78-1.79v-4.19c0-.98-.8-1.79-1.78-1.79h-14.27c.06-1.2.16-2.44.28-3.69l9.5-10.06c.07-.08.11-.19.09-.29a.313.313 0 0 0-.16-.25c-.99-.59-2.57-1.82-2.64-2.65-.01-.13 0-.31.24-.51 1.11-.96 3.54.33 4.38.9.12.08.27.08.38.01.4-.25 9.76-6.15 11.67-12.79.04-.12 0-.26-.09-.35a.344.344 0 0 0-.36-.07c-1.24.43-4.74 1.38-5.96.52-.28-.19-.41-.47-.41-.85 0-.79 2.99-2.01 6.98-2.84a.35.35 0 0 0 .28-.3l.62-5.67a.363.363 0 0 0-.3-.39zm-39 21.81c-2.69-2.85-5.93-5.5-9.62-7.88a.35.35 0 0 0-.38.59c3.65 2.35 6.84 4.97 9.49 7.77 2.17 2.3 3.93 6.62 5.25 11.22l-10.28-7.3c1.34-1.33 2.93-3.48 1.29-4.4-1.75-.98-4.13 1.06-4.79 1.69-1.38-.62-9.16-4.26-12.18-9.42 1.31-.09 4.35-.41 5.2-1.45.2-.25.28-.55.23-.85-.3-1.78-5.76-2.08-7.37-2.13l-1.83-4.78c1.49-.49 7.87-2.22 14.38 1.88 6.84 4.29 7.87 6.05 7.99 6.31.06.81.48 5.84 2.21 6.65.4.19.71.12.89.03.58-.3.75-1.2.91-2.07.07-.39.2-1.04.3-1.12.89.5 5.55 9.27 3.69 16.62-1.33-4.64-3.14-8.98-5.38-11.36zm9.32-9.93c-1.98-1.9-8.56-8.8-9.1-17.26-.44-6.83.57-7.28.69-7.31.01-.01.02-.01.04-.01.3 0 .88.62 1.33 1.62.55 1.21 1.94 3.49 3.28 3.36.61-.06 1.03-.57 1.27-1.54.33-1.34-.34-2.65-1.12-4.16-1-1.94-2.13-4.14-1.51-7.09.91-4.3 2.93-7.69 4.25-8.16.31-.11.48-.01.58.07.23.19.6.47 1.04.8 1.87 1.39 6.26 4.65 5.75 6.22-.24.75-1.12 1.32-1.97 1.88-1.32.86-2.96 1.93-1.76 3.86.62.98 1.55 1.44 2.7 1.32 1.25-.12 2.53-.92 3.3-1.69.09 2.39.29 8.48-.07 11.81-.77-.05-2.56-.08-3.43.74-.34.32-.5.74-.48 1.23.11 1.85 2.25 2.71 3.13 2.99-.51 1.51-2.8 7.67-7.22 11.36.04-3.05.19-14.75-.01-22.55-.01-.19-.17-.32-.36-.34-.2 0-.35.17-.34.36.2 7.76.05 19.38.01 22.49zm16.17 58.46h-30.86l-1.51-23.29h33.89l-1.52 23.29zm3.28-30.35c.6 0 1.08.48 1.08 1.08v4.19c0 .6-.48 1.09-1.08 1.09h-37.41c-.6 0-1.09-.49-1.09-1.09v-4.19c0-.6.49-1.08 1.09-1.08h37.41zm9.24-34.26c-2.38.51-7.31 1.76-7.29 3.47 0 .61.25 1.1.71 1.42 1.4.99 4.52.21 5.93-.22-2.07 5.64-9.68 10.78-10.97 11.62-.76-.47-3.51-2.03-5.04-.73-.35.3-.51.68-.48 1.11.1 1.18 1.82 2.44 2.61 2.96l-8.57 9.07c.57-4.78 1.63-9.48 3.23-12.28 1.91-3.36 4.39-6.65 7.37-9.8.13-.14.13-.36-.01-.49a.35.35 0 0 0-.5.01c-3.02 3.18-5.53 6.53-7.47 9.93-1.69 2.98-2.78 7.79-3.34 12.65-3.37-6.85-.47-16.49.28-17.18.15.08.4.7.54 1.07.33.82.68 1.67 1.31 1.85.19.05.5.06.86-.2 1.54-1.14.97-6.15.87-6.96.07-.28.74-2.2 6.6-7.75 5.34-5.05 11.95-4.82 13.91-4.62l-.55 5.07zM110.383 146.533h6.2v8.69a1.394 1.394 0 0 0 2.28 1.08l11.94-9.77h17.93c1.23 0 2.23-1 2.23-2.23v-30.84c0-1.23-1-2.23-2.23-2.23h-38.35c-1.22 0-2.22 1-2.22 2.23v30.84c0 1.23 1 2.23 2.22 2.23zm-1.52-33.07c0-.84.68-1.53 1.52-1.53h38.35c.84 0 1.53.69 1.53 1.53v30.84c0 .84-.69 1.53-1.53 1.53h-18.05c-.09 0-.16.02-.23.08l-12.04 9.85c-.467.378-1.13.033-1.13-.54v-9.04c0-.2-.16-.35-.35-.35h-6.55c-.84 0-1.52-.69-1.52-1.53v-30.84z"/><path fill="#46c671" d="M146.364 117.559v22.305a1.4 1.4 0 0 1-1.408 1.393H114.16a1.4 1.4 0 0 1-1.408-1.393v-22.305c0-.775.634-1.408 1.408-1.408h30.796c.774 0 1.408.633 1.408 1.408z"/><path fill="#fff" d="M129.563 131.973a.35.35 0 0 1-.35-.35v-1.671c0-.744.498-1.394 1.27-1.655 1.438-.486 2.232-1.984 1.847-3.484a2.82 2.82 0 0 0-1.995-2.002 2.903 2.903 0 0 0-2.526.497 2.855 2.855 0 0 0-1.118 2.274.35.35 0 1 1-.7 0c0-1.114.507-2.145 1.39-2.827a3.602 3.602 0 0 1 3.13-.622 3.53 3.53 0 0 1 2.496 2.506c.478 1.858-.51 3.716-2.299 4.32-.483.164-.795.554-.795.993v1.67a.35.35 0 0 1-.35.351zM129.563 133.952a.35.35 0 0 1-.35-.35v-.34a.35.35 0 1 1 .7 0v.34a.35.35 0 0 1-.35.35z"/></svg>